<svg xmlns="http://www.w3.org/2000/svg" width="64" height="64" shape-rendering="crispEdges">
  <!-- background -->
  <rect x="0" y="0" width="64" height="64" fill="#c0c0c0"/>
  <!-- head -->
  <rect x="20" y="4"  width="24" height="2"  fill="#1060c0"/>
  <rect x="18" y="6"  width="28" height="2"  fill="#1060c0"/>
  <rect x="16" y="8"  width="32" height="14" fill="#1060c0"/>
  <rect x="18" y="22" width="28" height="2"  fill="#1060c0"/>
  <rect x="20" y="24" width="24" height="2"  fill="#1060c0"/>
  <!-- neck -->
  <rect x="24" y="26" width="16" height="4"  fill="#1060c0"/>
  <!-- body -->
  <rect x="10" y="30" width="2"  height="2"  fill="#1060c0"/>
  <rect x="8"  y="32" width="4"  height="2"  fill="#1060c0"/>
  <rect x="6"  y="34" width="52" height="2"  fill="#1060c0"/>
  <rect x="4"  y="36" width="56" height="2"  fill="#1060c0"/>
  <rect x="4"  y="38" width="56" height="16" fill="#1060c0"/>
  <rect x="6"  y="54" width="52" height="2"  fill="#1060c0"/>
  <rect x="8"  y="56" width="48" height="2"  fill="#1060c0"/>
  <!-- highlight shimmer on head -->
  <rect x="22" y="10" width="4"  height="2"  fill="#4898e8"/>
  <rect x="22" y="12" width="2"  height="2"  fill="#4898e8"/>
  <!-- eyes -->
  <rect x="22" y="14" width="6"  height="4"  fill="#c0c0c0"/>
  <rect x="36" y="14" width="6"  height="4"  fill="#c0c0c0"/>
  <rect x="24" y="15" width="2"  height="2"  fill="#000060"/>
  <rect x="38" y="15" width="2"  height="2"  fill="#000060"/>
</svg>
